<?xml version="1.0" standalone="no"?>
<!DOCTYPE svg PUBLIC "-//W3C//DTD SVG 20010904//EN"
 "http://www.w3.org/TR/2001/REC-SVG-20010904/DTD/svg10.dtd">
<svg version="1.0" xmlns="http://www.w3.org/2000/svg"
 width="260.000000pt" height="260.000000pt" viewBox="0 0 260.000000 260.000000"
 preserveAspectRatio="xMidYMid meet">
<metadata>
Created by potrace 1.11, written by Peter Selinger 2001-2013
</metadata>
<g transform="translate(0.000000,260.000000) scale(0.100000,-0.100000)"
fill="#000000" stroke="none">
<path d="M729 1747 c-182 -52 -269 -222 -187 -368 40 -71 112 -106 347 -169
103 -28 151 -65 151 -115 0 -88 -126 -140 -255 -104 -51 14 -102 65 -110 112
l-7 37 -95 0 -95 0 7 -47 c19 -129 105 -212 257 -248 116 -27 268 -10 353 39
162 95 179 325 32 424 -53 36 -79 45 -202 76 -125 31 -184 52 -207 73 -28 25
-23 77 11 115 24 28 36 32 90 36 80 6 145 -18 172 -62 10 -17 19 -39 19 -48 0
-16 11 -18 95 -18 108 0 106 -2 79 89 -20 70 -81 131 -160 161 -73 28 -225 37
-295 17z"/>
<path d="M1350 1295 l0 -445 95 0 95 0 0 175 0 175 121 0 c192 0 212 -18 234
-211 8 -66 17 -124 20 -130 4 -5 49 -9 100 -9 l95 0 -11 28 c-6 15 -15 74 -20
132 -15 163 -34 212 -101 246 l-30 15 45 29 c119 75 124 285 9 380 -67 55 -99
60 -389 60 l-263 0 0 -445z m511 257 c24 -26 29 -41 29 -82 0 -112 -29 -130
-215 -130 l-135 0 0 126 0 125 146 -3 146 -3 29 -33z"/>
</g>
</svg>
